# xmcd
#
# Track frame offsets:
#	150
#	17026
#	41780
#	63047
#	77051
#	93324
#	120564
#	131978
#	146630
#	160873
#	177344
#	192680
#	202766
#	214785
#	227494
#	239376
#	255639
#	272356
#
# Disc length: 3829
#
# Revision: 1
# Processed by: cddbd v1.5.1PL0 Copyright (c) Steve Scherf et al.
# Submitted via: CDex 1.40Release
# Normalized: r0:DSETVAR1,TDELIM( - )
#
DISCID=f90ef312
DTITLE=Various Artist - stampede line dancers cd 2
DYEAR=1900
DGENRE=Country
TTITLE0=Chris Hillman - I'm alive [act alive]
TTITLE1=Kimber Clayton - Addicted to love [addicted to love]
TTITLE2=Lee ann Rimes - Commitment [commitment]
TTITLE3=Shania Twain - What made you say that [country voice inside]
TTITLE4=Bellamy brothers - Rib of the knob [cowboy strut
TTITLE5=Arrow - Hot hot hot [fall in line]
TTITLE6=Royal showband - Huckle buck [huckle buck]
TTITLE7=Brooks and dunn - Husband and wives [husbands &wives]
TTITLE8=Eddy Raven - Jambalaya [jambalaya joe]
TTITLE9=Shania Twain - Gone and done it [gone and done it]
TTITLE10=Scooter Lee - Baby please come home [making tracks]
TTITLE11=Lou Bega - Mambo nr 5[Mambo nr.5]
TTITLE12=Danny Leigh - Ol lonesome [old shoes]
TTITLE13=Trini Triggs - Straight tequila [over in dallas
TTITLE14=Lee ann Rimes - Cowboy sweetheart [picnic polka]
TTITLE15=Scooter Lee - Rose garden [rose garden
TTITLE16=Charly mc Clain - Sentimental Ol'You [Old fool]
TTITLE17=Delbert Mc Clinton - Why me [twist'm]
EXTD=ID3G: 2
EXTT0=
EXTT1=
EXTT2=
EXTT3=
EXTT4=
EXTT5=
EXTT6=
EXTT7=
EXTT8=
EXTT9=
EXTT10=
EXTT11=
EXTT12=
EXTT13=
EXTT14=
EXTT15=
EXTT16=
EXTT17=
PLAYORDER=
